<mxfile host="Electron" agent="Mozilla/5.0 (Windows NT 10.0; Win64; x64) AppleWebKit/537.36 (KHTML, like Gecko) draw.io/24.7.8 Chrome/128.0.6613.36 Electron/32.0.1 Safari/537.36" version="24.7.8">
  <diagram name="페이지-1" id="7FaOCvt4ck8mcJ0FtoCO">
    <mxGraphModel dx="755" dy="-482" grid="1" gridSize="10" guides="1" tooltips="1" connect="1" arrows="1" fold="1" page="1" pageScale="1" pageWidth="827" pageHeight="1169" math="0" shadow="0">
      <root>
        <mxCell id="0" />
        <mxCell id="1" parent="0" />
        <mxCell id="3FIhw8eUhCRVktCjmC6j-1" value="" style="rounded=0;whiteSpace=wrap;html=1;" vertex="1" parent="1">
          <mxGeometry x="1090" y="3150" width="989" height="560" as="geometry" />
        </mxCell>
        <mxCell id="3FIhw8eUhCRVktCjmC6j-2" value="" style="edgeStyle=orthogonalEdgeStyle;rounded=0;orthogonalLoop=1;jettySize=auto;html=1;entryX=0;entryY=0.5;entryDx=0;entryDy=0;" edge="1" parent="1" target="3FIhw8eUhCRVktCjmC6j-7">
          <mxGeometry relative="1" as="geometry">
            <mxPoint x="1231" y="3260" as="targetPoint" />
            <Array as="points">
              <mxPoint x="1114" y="3260" />
              <mxPoint x="1114" y="3365" />
              <mxPoint x="1258" y="3365" />
            </Array>
            <mxPoint x="1001" y="3260" as="sourcePoint" />
          </mxGeometry>
        </mxCell>
        <mxCell id="3FIhw8eUhCRVktCjmC6j-3" value="" style="edgeStyle=orthogonalEdgeStyle;rounded=0;orthogonalLoop=1;jettySize=auto;html=1;entryX=0;entryY=0.5;entryDx=0;entryDy=0;" edge="1" parent="1" target="3FIhw8eUhCRVktCjmC6j-6">
          <mxGeometry relative="1" as="geometry">
            <mxPoint x="1251" y="3255" as="targetPoint" />
            <mxPoint x="1001" y="3260" as="sourcePoint" />
          </mxGeometry>
        </mxCell>
        <mxCell id="3FIhw8eUhCRVktCjmC6j-6" value="회원가입" style="ellipse;whiteSpace=wrap;html=1;" vertex="1" parent="1">
          <mxGeometry x="1259" y="3236" width="169" height="50" as="geometry" />
        </mxCell>
        <mxCell id="3FIhw8eUhCRVktCjmC6j-46" value="" style="edgeStyle=orthogonalEdgeStyle;rounded=0;orthogonalLoop=1;jettySize=auto;html=1;" edge="1" parent="1" source="3FIhw8eUhCRVktCjmC6j-7">
          <mxGeometry relative="1" as="geometry">
            <mxPoint x="1630" y="3368" as="targetPoint" />
          </mxGeometry>
        </mxCell>
        <mxCell id="3FIhw8eUhCRVktCjmC6j-7" value="대여" style="ellipse;whiteSpace=wrap;html=1;" vertex="1" parent="1">
          <mxGeometry x="1258" y="3343" width="169" height="50" as="geometry" />
        </mxCell>
        <mxCell id="3FIhw8eUhCRVktCjmC6j-49" value="" style="edgeStyle=orthogonalEdgeStyle;rounded=0;orthogonalLoop=1;jettySize=auto;html=1;" edge="1" parent="1" source="3FIhw8eUhCRVktCjmC6j-8" target="3FIhw8eUhCRVktCjmC6j-17">
          <mxGeometry relative="1" as="geometry" />
        </mxCell>
        <mxCell id="3FIhw8eUhCRVktCjmC6j-8" value="반납" style="ellipse;whiteSpace=wrap;html=1;" vertex="1" parent="1">
          <mxGeometry x="1270" y="3445" width="169" height="50" as="geometry" />
        </mxCell>
        <mxCell id="3FIhw8eUhCRVktCjmC6j-10" value="" style="edgeStyle=orthogonalEdgeStyle;rounded=0;orthogonalLoop=1;jettySize=auto;html=1;entryX=0;entryY=0.5;entryDx=0;entryDy=0;" edge="1" parent="1" target="3FIhw8eUhCRVktCjmC6j-8">
          <mxGeometry relative="1" as="geometry">
            <mxPoint x="1001" y="3261" as="sourcePoint" />
            <mxPoint x="1227" y="3381" as="targetPoint" />
            <Array as="points">
              <mxPoint x="1114" y="3261" />
              <mxPoint x="1114" y="3470" />
            </Array>
          </mxGeometry>
        </mxCell>
        <mxCell id="3FIhw8eUhCRVktCjmC6j-14" value="대여표&lt;span style=&quot;color: rgba(0, 0, 0, 0); font-family: monospace; font-size: 0px; text-align: start; text-wrap: nowrap;&quot;&gt;%3CmxGraphModel%3E%3Croot%3E%3CmxCell%20id%3D%220%22%2F%3E%3CmxCell%20id%3D%221%22%20parent%3D%220%22%2F%3E%3CmxCell%20id%3D%222%22%20value%3D%22%26amp%3Blt%3B%26amp%3Blt%3Binclude%26amp%3Bgt%3B%26amp%3Bgt%3B%22%20style%3D%22html%3D1%3BverticalAlign%3Dbottom%3BlabelBackgroundColor%3Dnone%3BendArrow%3Dopen%3BendFill%3D0%3Bdashed%3D1%3Brounded%3D0%3BexitX%3D0%3BexitY%3D0.5%3BexitDx%3D0%3BexitDy%3D0%3B%22%20edge%3D%221%22%20parent%3D%221%22%3E%3CmxGeometry%20width%3D%22160%22%20relative%3D%221%22%20as%3D%22geometry%22%3E%3CmxPoint%20x%3D%221560%22%20y%3D%223205%22%20as%3D%22sourcePoint%22%2F%3E%3CmxPoint%20x%3D%221428%22%20y%3D%223260.37%22%20as%3D%22targetPoint%22%2F%3E%3C%2FmxGeometry%3E%3C%2FmxCell%3E%3C%2Froot%3E%3C%2FmxGraphModel%3E&lt;/span&gt;시" style="ellipse;whiteSpace=wrap;html=1;" vertex="1" parent="1">
          <mxGeometry x="1631" y="3343" width="169" height="50" as="geometry" />
        </mxCell>
        <mxCell id="3FIhw8eUhCRVktCjmC6j-17" value="대여목록삭제" style="ellipse;whiteSpace=wrap;html=1;" vertex="1" parent="1">
          <mxGeometry x="1550" y="3450" width="169" height="50" as="geometry" />
        </mxCell>
        <mxCell id="3FIhw8eUhCRVktCjmC6j-18" value="연체된 비디오 확인" style="ellipse;whiteSpace=wrap;html=1;" vertex="1" parent="1">
          <mxGeometry x="1530" y="3520" width="169" height="50" as="geometry" />
        </mxCell>
        <mxCell id="3FIhw8eUhCRVktCjmC6j-19" value="이름" style="ellipse;whiteSpace=wrap;html=1;" vertex="1" parent="1">
          <mxGeometry x="1560" y="3180" width="169" height="50" as="geometry" />
        </mxCell>
        <mxCell id="3FIhw8eUhCRVktCjmC6j-51" value="" style="edgeStyle=orthogonalEdgeStyle;rounded=0;orthogonalLoop=1;jettySize=auto;html=1;" edge="1" parent="1" source="3FIhw8eUhCRVktCjmC6j-21" target="3FIhw8eUhCRVktCjmC6j-50">
          <mxGeometry relative="1" as="geometry">
            <Array as="points">
              <mxPoint x="1344" y="3590" />
            </Array>
          </mxGeometry>
        </mxCell>
        <mxCell id="3FIhw8eUhCRVktCjmC6j-52" value="" style="edgeStyle=orthogonalEdgeStyle;rounded=0;orthogonalLoop=1;jettySize=auto;html=1;" edge="1" parent="1" source="3FIhw8eUhCRVktCjmC6j-21" target="3FIhw8eUhCRVktCjmC6j-18">
          <mxGeometry relative="1" as="geometry" />
        </mxCell>
        <mxCell id="3FIhw8eUhCRVktCjmC6j-21" value="연체" style="ellipse;whiteSpace=wrap;html=1;" vertex="1" parent="1">
          <mxGeometry x="1259" y="3520" width="169" height="50" as="geometry" />
        </mxCell>
        <mxCell id="3FIhw8eUhCRVktCjmC6j-22" value="" style="edgeStyle=orthogonalEdgeStyle;rounded=0;orthogonalLoop=1;jettySize=auto;html=1;entryX=0;entryY=0.5;entryDx=0;entryDy=0;" edge="1" parent="1">
          <mxGeometry relative="1" as="geometry">
            <mxPoint x="1000" y="3260" as="sourcePoint" />
            <mxPoint x="1250" y="3539" as="targetPoint" />
            <Array as="points">
              <mxPoint x="1000" y="3260" />
              <mxPoint x="1113" y="3260" />
              <mxPoint x="1113" y="3539" />
            </Array>
          </mxGeometry>
        </mxCell>
        <mxCell id="3FIhw8eUhCRVktCjmC6j-26" value="회원" style="shape=umlActor;verticalLabelPosition=bottom;verticalAlign=top;html=1;outlineConnect=0;" vertex="1" parent="1">
          <mxGeometry x="970" y="3236" width="30" height="60" as="geometry" />
        </mxCell>
        <mxCell id="3FIhw8eUhCRVktCjmC6j-35" value="&amp;lt;&amp;lt;include&amp;gt;&amp;gt;" style="html=1;verticalAlign=bottom;labelBackgroundColor=none;endArrow=open;endFill=0;dashed=1;rounded=0;exitX=0;exitY=0.5;exitDx=0;exitDy=0;" edge="1" parent="1" source="3FIhw8eUhCRVktCjmC6j-19">
          <mxGeometry width="160" relative="1" as="geometry">
            <mxPoint x="1568" y="3261.37" as="sourcePoint" />
            <mxPoint x="1428" y="3260.37" as="targetPoint" />
          </mxGeometry>
        </mxCell>
        <mxCell id="3FIhw8eUhCRVktCjmC6j-36" value="전화번호" style="ellipse;whiteSpace=wrap;html=1;" vertex="1" parent="1">
          <mxGeometry x="1560" y="3236" width="169" height="50" as="geometry" />
        </mxCell>
        <mxCell id="3FIhw8eUhCRVktCjmC6j-37" value="&amp;lt;&amp;lt;include&amp;gt;&amp;gt;" style="html=1;verticalAlign=bottom;labelBackgroundColor=none;endArrow=open;endFill=0;dashed=1;rounded=0;exitX=0.031;exitY=0.623;exitDx=0;exitDy=0;exitPerimeter=0;" edge="1" parent="1" source="3FIhw8eUhCRVktCjmC6j-36">
          <mxGeometry width="160" relative="1" as="geometry">
            <mxPoint x="1570" y="3215" as="sourcePoint" />
            <mxPoint x="1430" y="3261" as="targetPoint" />
          </mxGeometry>
        </mxCell>
        <mxCell id="3FIhw8eUhCRVktCjmC6j-40" value="연체표시" style="ellipse;whiteSpace=wrap;html=1;" vertex="1" parent="1">
          <mxGeometry x="1631" y="3400" width="169" height="50" as="geometry" />
        </mxCell>
        <mxCell id="3FIhw8eUhCRVktCjmC6j-47" value="" style="edgeStyle=orthogonalEdgeStyle;rounded=0;orthogonalLoop=1;jettySize=auto;html=1;" edge="1" parent="1" target="3FIhw8eUhCRVktCjmC6j-40">
          <mxGeometry relative="1" as="geometry">
            <mxPoint x="1427" y="3367.52" as="sourcePoint" />
            <mxPoint x="1630" y="3367.52" as="targetPoint" />
            <Array as="points">
              <mxPoint x="1427" y="3420" />
            </Array>
          </mxGeometry>
        </mxCell>
        <mxCell id="3FIhw8eUhCRVktCjmC6j-50" value="연체중회원" style="ellipse;whiteSpace=wrap;html=1;" vertex="1" parent="1">
          <mxGeometry x="1530" y="3590" width="169" height="50" as="geometry" />
        </mxCell>
      </root>
    </mxGraphModel>
  </diagram>
</mxfile>
